<svg xmlns="http://www.w3.org/2000/svg" xmlns:xlink="http://www.w3.org/1999/xlink" width="16" height="18" viewBox="0 0 16 18" fill="none"><path id="color" fill-rule="evenodd" style="fill:#1E5EFF" opacity="1" d="M15.41,4.82l-8.23,8.24c-0.16,0.15 -0.35,0.25 -0.57,0.28l-4.61,0.66l0.66,-4.61c0.03,-0.22 0.13,-0.41 0.28,-0.57l8.24,-8.23c0.78,-0.78 2.04,-0.78 2.82,0l1.41,1.41c0.78,0.78 0.78,2.04 0,2.82zM6.0035,11.4071l8,-8l-1.41,-1.41l-8,8l-0.24,1.65zM15,16c0.55,0 1,0.45 1,1c0,0.55 -0.45,1 -1,1h-14c-0.55,0 -1,-0.45 -1,-1c0,-0.55 0.45,-1 1,-1z"></path></svg>