<svg xmlns="http://www.w3.org/2000/svg" xmlns:xlink="http://www.w3.org/1999/xlink" width="17.00250244140625" height="17.0029296875" viewBox="0 0 17.00250244140625 17.0029296875" fill="none"><path id="color" fill-rule="evenodd" style="fill:#7E84A3" opacity="1" d="M16.71,16.71c-0.36,0.36 -0.93,0.39 -1.32,0.08l-0.1,-0.08l-3.24,-3.25c-1.26,0.97 -2.84,1.54 -4.55,1.54c-4.14,0 -7.5,-3.36 -7.5,-7.5c0,-4.14 3.36,-7.5 7.5,-7.5c4.14,0 7.5,3.36 7.5,7.5c0,1.71 -0.57,3.29 -1.54,4.55l3.25,3.24c0.39,0.39 0.39,1.03 0,1.42zM2,7.5c0,3.04 2.46,5.5 5.5,5.5c1.35,0 2.59,-0.49 3.55,-1.3c0.04,-0.15 0.12,-0.29 0.24,-0.41c0.12,-0.12 0.26,-0.2 0.41,-0.25c0.81,-0.95 1.3,-2.19 1.3,-3.54c0,-3.04 -2.46,-5.5 -5.5,-5.5c-3.04,0 -5.5,2.46 -5.5,5.5z"></path></svg>